<?xml version="1.0" encoding="UTF-8" standalone="no"?>
<!-- Created with Inkscape (http://www.inkscape.org/) -->
<svg xmlns:dc="http://purl.org/dc/elements/1.1/" xmlns:cc="http://creativecommons.org/ns#" xmlns:rdf="http://www.w3.org/1999/02/22-rdf-syntax-ns#" xmlns:svg="http://www.w3.org/2000/svg" xmlns="http://www.w3.org/2000/svg" xmlns:xlink="http://www.w3.org/1999/xlink" xmlns:sodipodi="http://sodipodi.sourceforge.net/DTD/sodipodi-0.dtd" xmlns:inkscape="http://www.inkscape.org/namespaces/inkscape" width="109.61984mm" height="109.61984mm" viewBox="0 0 109.61984 109.61984" version="1.1" id="svg8" inkscape:version="0.92.4 (5da689c313, 2019-01-14)" sodipodi:docname="logo.svg">
  <defs id="defs2">
    <linearGradient id="linearGradient5082" inkscape:collect="always">
      <stop id="stop5074" offset="0" style="stop-color:#120a8f;stop-opacity:1"/>
      <stop style="stop-color:#5e57ca;stop-opacity:1" offset="0.33940142" id="stop5076"/>
      <stop id="stop5078" offset="0.93963963" style="stop-color:#5e57ca;stop-opacity:1"/>
      <stop id="stop5080" offset="1" style="stop-color:#120a8f;stop-opacity:1"/>
    </linearGradient>
    <inkscape:path-effect effect="powerstroke" id="path-effect4749" is_visible="true" offset_points="0.0021826139,-0.67063754" sort_points="true" interpolator_type="CubicBezierJohan" interpolator_beta="0.2" start_linecap_type="zerowidth" linejoin_type="extrp_arc" miter_limit="4" end_linecap_type="zerowidth"/>
    <inkscape:path-effect effect="skeletal" id="path-effect947" is_visible="true" pattern="M 0,5 C 0,2.24 2.24,0 5,0 7.76,0 10,2.24 10,5 10,7.76 7.76,10 5,10 2.24,10 0,7.76 0,5 Z" copytype="single_stretched" prop_scale="0.26458333" scale_y_rel="false" spacing="0" normal_offset="0" tang_offset="0" prop_units="false" vertical_pattern="false" fuse_tolerance="0"/>
    <inkscape:path-effect effect="powerstroke" id="path-effect943" is_visible="true" offset_points="1,0.13229166" sort_points="true" interpolator_type="CubicBezierJohan" interpolator_beta="0.2" start_linecap_type="zerowidth" linejoin_type="extrp_arc" miter_limit="4" end_linecap_type="zerowidth"/>
    <inkscape:path-effect effect="powerstroke" id="path-effect935" is_visible="true" offset_points="39,0.13229166" sort_points="true" interpolator_type="CubicBezierJohan" interpolator_beta="0.2" start_linecap_type="zerowidth" linejoin_type="extrp_arc" miter_limit="4" end_linecap_type="zerowidth"/>
    <inkscape:path-effect effect="powerstroke" id="path-effect931" is_visible="true" offset_points="0,0.46949551" sort_points="true" interpolator_type="CubicBezierJohan" interpolator_beta="0.2" start_linecap_type="zerowidth" linejoin_type="extrp_arc" miter_limit="4" end_linecap_type="zerowidth"/>
    <inkscape:path-effect effect="powerstroke" id="path-effect927" is_visible="true" offset_points="0,0.13229166" sort_points="true" interpolator_type="CubicBezierJohan" interpolator_beta="0.2" start_linecap_type="zerowidth" linejoin_type="extrp_arc" miter_limit="4" end_linecap_type="zerowidth"/>
    <linearGradient inkscape:collect="always" xlink:href="#linearGradient5082" id="linearGradient4811" x1="22.872128" y1="80.733345" x2="79.632896" y2="80.783066" gradientUnits="userSpaceOnUse" gradientTransform="matrix(1.0914202,0,0,1.0914202,45.046254,-74.720567)"/>
  </defs>
  <sodipodi:namedview id="base" pagecolor="#ffffff" bordercolor="#666666" borderopacity="1.0" inkscape:pageopacity="0.0" inkscape:pageshadow="2" inkscape:zoom="0.70710678" inkscape:cx="97.637368" inkscape:cy="134.57404" inkscape:document-units="mm" inkscape:current-layer="g5072" showgrid="false" showguides="false" inkscape:guide-bbox="true" fit-margin-top="0" fit-margin-left="0" fit-margin-right="0" fit-margin-bottom="0" inkscape:window-width="1366" inkscape:window-height="705" inkscape:window-x="-8" inkscape:window-y="-8" inkscape:window-maximized="1"/>
  <metadata id="metadata5">
    <rdf:RDF>
      <cc:Work rdf:about="">
        <dc:format>image/svg+xml</dc:format>
        <dc:type rdf:resource="http://purl.org/dc/dcmitype/StillImage"/>
        <dc:title/>
      </cc:Work>
    </rdf:RDF>
  </metadata>
  <g inkscape:label="Layer 1" inkscape:groupmode="layer" id="layer1" transform="translate(-9.1132312,194.25005)">
    <g id="g5072" inkscape:export-xdpi="465.85858" inkscape:export-ydpi="465.85858">
      <g style="stroke-width:1.09142005" transform="matrix(0.91623748,0,0,0.91623748,46.139836,-84.266766)" id="g4881">
        <circle style="opacity:1;fill:none;fill-opacity:0.22222224;stroke:#120a8f;stroke-width:1.6371299;stroke-miterlimit:4;stroke-dasharray:none;stroke-dashoffset:0;stroke-opacity:1" id="path4830" cx="19.409071" cy="-60.217319" r="59.002087"/>
        <g style="stroke-width:1.09142005" id="g4828" transform="translate(-85.725,-44.979166)">
          <path sodipodi:nodetypes="ccccccccccccccccccccccc" inkscape:connector-curvature="0" id="path4737" d="m 92.421801,18.705605 c 7.830819,-3.577304 16.346139,-9.354433 26.379499,-9.354433 -0.73846,1.71076 -4.49012,4.770761 -4.49012,4.770761 7.22332,-1.271218 7.17868,-12.6900337 14.43792,-14.92364516 2.19972,10.01084786 3.85815,-0.77682824 3.89677,-3.03686684 0.50046,-1.0009262 2.93691,-1.5337441 3.83531,-2.4321527 3.35773,-3.3577265 7.17848,-10.0985813 7.10937,-20.0184883 4.50689,18.195298 7.03668,25.29963886 -1.37701,31.1892211 v -1e-7 c 2.50043,0.641531 4.6225,-1.8224272 6.48229,-3.1749999 -0.97933,5.3835287 -5.93229,9.3117059 -10.25022,11.2743999 2.71,0.232162 4.6366,-1.534079 6.45456,-2.525697 -4.10704,7.809925 -20.39063,15.730701 -23.0119,13.844562 4.16762,2.885573 4.46818,0.384561 10.47696,5.519115 -17.42234,1.711937 -18.77873,3.769912 -23.80703,-0.140316 1.80689,2.796573 2.54102,2.689558 5.0283,3.910228 -12.19347,4.489972 -23.665413,-1.138171 -30.375042,-9.326563 -1.055269,2.327709 -0.297784,3.232461 0.396875,5.490104 -5.738065,-4.369306 -14.31225,-10.62903 -14.055991,-18.289323 6.281325,-2.0327089 14.54783,0.01908 19.876824,2.017448 -2.2421,0.752947 -2.697614,2.697018 -3.704166,4.233334 4.575691,-0.06603 6.075156,-3.813436 10.438576,-4.68612 -0.446471,2.574881 -3.606148,5.439143 -3.741775,5.659432 z" style="fill:#120a8f;fill-opacity:1;stroke:none;stroke-width:0.28877157px;stroke-linecap:butt;stroke-linejoin:miter;stroke-opacity:1"/>
          <g id="g4765" style="fill:#120a8f;fill-opacity:1;stroke-width:1.04925263" transform="matrix(1.0401881,0,0,1.0401881,400.10635,108.64857)">
            <path sodipodi:nodetypes="cscccccscscsccscssccscccsccccccccccccccccccccccccccc" d="m -261.39024,-141.06484 c 0.1498,1.16844 0.2247,2.41178 0.2247,3.73003 0,2.24701 -0.2996,5.59506 -0.8988,10.04413 -0.31458,2.27697 -0.92876,4.82358 -1.84255,7.63983 -0.89881,2.72637 -1.82008,4.92095 -2.76382,6.58374 l -0.56175,0.98868 c -1.60287,1.88749 -3.38549,3.45291 -5.34788,4.69625 -2.42677,1.52797 -4.77115,2.29195 -7.03314,2.29195 -2.69641,0 -4.9584,-1.43059 -6.78597,-4.29178 1.16845,1.16844 3.03346,1.75266 5.59505,1.75266 4.40414,0 8.50868,-2.09721 12.31361,-6.29162 -2.05227,-2.08223 -3.0784,-4.98837 -3.0784,-8.7184 0,-3.11585 0.68908,-6.41147 2.06725,-9.88684 1.30327,-3.28063 2.93609,-6.04445 4.89848,-8.29146 0.88382,-1.00367 1.63282,-1.5055 2.24701,-1.5055 0.53928,0 0.86135,0.41944 0.96621,1.25833 z m -2.4043,5.4827 c 0,-2.27697 -0.13482,-3.41545 -0.40446,-3.41545 -0.19474,0 -0.5243,0.24717 -0.98869,0.74151 -1.46804,1.52797 -2.70389,3.74502 -3.70756,6.65115 -1.04861,3.01099 -1.57291,5.97704 -1.57291,8.89815 0,3.55027 0.79394,6.35155 2.38183,8.40382 1.21339,-1.60287 2.05976,-2.99601 2.53912,-4.17944 0.62917,-1.57291 1.0561,-3.70008 1.2808,-6.38151 0.31458,-3.71505 0.47187,-7.2878 0.47187,-10.71823 z m 4.68816,-20.12961 c 0.76398,0.0749 1.49801,0.0974 2.20207,0.0674 0.71904,-0.0449 1.44558,-0.17975 2.1796,-0.40447 0.73402,-0.2247 1.48302,-0.55426 2.247,-0.98868 0.76399,-0.4494 1.5804,-1.0486 2.44924,-1.79761 0.17977,-0.1498 0.36702,-0.32956 0.56176,-0.53928 0.20972,-0.20972 0.40446,-0.41195 0.58422,-0.60669 0.19474,-0.19474 0.36701,-0.35203 0.51681,-0.47187 0.1498,-0.13482 0.25466,-0.20223 0.31458,-0.20223 0.13482,-0.015 0.21721,0.0974 0.24717,0.33705 0.0299,0.2247 -0.045,0.50932 -0.2247,0.85386 -0.35952,0.71904 -0.86884,1.56542 -1.52796,2.53912 -0.64414,0.95873 -1.3557,1.82757 -2.13466,2.60653 -1.43808,1.45307 -2.80127,2.53163 -4.08956,3.23569 -1.28828,0.68909 -2.83123,1.07108 -4.62884,1.14598 -0.79394,0 -1.498,-0.015 -2.11219,-0.0449 -0.61418,-0.0449 -1.44557,-0.0374 -2.49418,0.0225 -1.03362,0.0449 -1.99983,0.26215 -2.89864,0.65163 -0.88382,0.38948 -1.66278,0.81642 -2.33689,1.2808 -0.10486,0.0299 -0.20972,0.0449 -0.31458,0.0449 -0.0899,-0.015 -0.1498,-0.0524 -0.17976,-0.11235 -0.0449,-0.0599 0.0375,-0.29961 0.24717,-0.71905 0.26964,-0.5992 0.7565,-1.31824 1.46056,-2.15713 0.71904,-0.85386 1.64781,-1.70772 2.78629,-2.56159 1.15347,-0.86884 2.24701,-1.46055 3.28063,-1.77513 1.04861,-0.32956 2.3369,-0.46438 3.86486,-0.40446 z" style="font-style:normal;font-variant:normal;font-weight:normal;font-stretch:normal;font-size:46.01874542px;line-height:1.25;font-family:Shekasteh_Beta;-inkscape-font-specification:Shekasteh_Beta;letter-spacing:0px;word-spacing:0px;fill:#120a8f;fill-opacity:1;stroke:none;stroke-width:0.27761474" id="path4751" inkscape:connector-curvature="0"/>
            <path sodipodi:nodetypes="cccscccccsscccccccscccccccccccccc" d="m -275.8385,-128.48159 c -1.43809,4.92844 -3.07091,8.53114 -4.89848,10.80811 -1.82757,2.27697 -3.56525,3.49036 -5.21306,3.64016 -1.16845,0.0299 -1.75267,-0.29963 -1.75267,-0.98869 0,-0.68908 0.26964,-1.25832 0.80892,-1.70772 0.53929,-0.44941 1.2808,-0.93626 2.22454,-1.46056 0.95873,-0.53928 1.96988,-1.23585 3.03347,-2.08972 1.07856,-0.86884 1.95489,-1.89497 2.629,-3.0784 0.6741,-1.18343 1.32573,-2.56159 1.95489,-4.1345 0.62917,-1.58789 1.06359,-2.38183 1.30327,-2.38183 0.10486,0 0.15729,0.11235 0.15729,0.33705 0,0.20973 -0.0824,0.56176 -0.24717,1.0561 z m 2.41373,-10.67241 c 0.11985,0.43443 0.11235,0.88383 -0.0225,1.34821 -0.11984,0.46438 -0.35203,0.95123 -0.69657,1.46055 -0.20972,0.34455 -0.43442,0.65913 -0.6741,0.94375 -0.2247,0.26964 -0.46438,0.53179 -0.71904,0.78645 -0.0749,0.0899 -0.19474,0.20223 -0.35953,0.33705 -0.16478,0.13482 -0.33705,0.26215 -0.51681,0.38199 -0.17976,0.11984 -0.35203,0.20972 -0.51681,0.26964 -0.16478,0.0449 -0.28462,0.0225 -0.35952,-0.0674 -0.53928,-0.43442 -1.07107,-0.87633 -1.59538,-1.32573 -0.5243,-0.4494 -1.10103,-0.86884 -1.73019,-1.25833 -0.10486,-0.0749 -0.15729,-0.14231 -0.15729,-0.20223 0.015,-0.0749 0.0599,-0.17976 0.13482,-0.31458 l 3.59521,-5.4827 c 0.10486,-0.1498 0.20972,-0.21721 0.31458,-0.20223 0.10486,0 0.21721,0.0374 0.33705,0.11235 0.31458,0.17976 0.62917,0.38199 0.94375,0.60669 0.31458,0.2247 0.60669,0.47188 0.87633,0.74152 0.26964,0.25466 0.50183,0.53928 0.69657,0.85386 0.20972,0.2996 0.35952,0.63665 0.4494,1.01115 z" style="font-style:normal;font-variant:normal;font-weight:normal;font-stretch:normal;font-size:46.01874542px;line-height:1.25;font-family:Shekasteh_Beta;-inkscape-font-specification:Shekasteh_Beta;letter-spacing:0px;word-spacing:0px;fill:#120a8f;fill-opacity:1;stroke:none;stroke-width:0.27761474" id="path4753" inkscape:connector-curvature="0"/>
            <path d="m -287.72518,-141.06484 q 0.2247,1.75266 0.2247,3.73003 0,3.37052 -0.8988,10.04413 -0.47188,3.41546 -1.84255,7.63983 -1.34821,4.08956 -2.76382,6.58374 l -0.56175,0.98868 q -2.4043,2.83124 -5.34789,4.69625 -3.64015,2.29195 -7.03313,2.29195 -4.04462,0 -6.78597,-4.29178 1.75267,1.75266 5.59505,1.75266 6.60621,0 12.31361,-6.29162 -3.0784,-3.12335 -3.0784,-8.7184 0,-4.67378 2.06725,-9.88684 1.95489,-4.92095 4.89848,-8.29146 1.32573,-1.5055 2.247,-1.5055 0.80893,0 0.96622,1.25833 z m -2.4043,5.4827 q 0,-3.41545 -0.40446,-3.41545 -0.29211,0 -0.98869,0.74151 -2.20207,2.29195 -3.70756,6.65115 -1.57291,4.51648 -1.57291,8.89815 0,5.32541 2.38183,8.40382 1.82008,-2.4043 2.53912,-4.17944 0.94375,-2.35936 1.2808,-6.38151 0.47187,-5.57258 0.47187,-10.71823 z" style="font-style:normal;font-variant:normal;font-weight:normal;font-stretch:normal;font-size:46.01874542px;line-height:1.25;font-family:Shekasteh_Beta;-inkscape-font-specification:Shekasteh_Beta;letter-spacing:0px;word-spacing:0px;fill:#120a8f;fill-opacity:1;stroke:none;stroke-width:0.27761474" id="path4755" inkscape:connector-curvature="0"/>
            <path d="m -300.28596,-133.11043 q 2.94358,1.75267 2.94358,5.10071 v 1.01115 q 0,3.39299 -3.16828,8.65099 -2.20207,3.3031 -5.95457,4.33673 -0.29211,0.0674 -0.69658,0.0674 h -0.0674 q -0.47187,0 -0.62916,-0.44941 0,-1.05609 4.17944,-4.17943 3.0784,-2.49418 3.16828,-3.39299 v -0.56175 q 0,-2.22454 -3.10087,-4.40414 2.629,-5.72987 3.32557,-6.17927 z" style="font-style:normal;font-variant:normal;font-weight:normal;font-stretch:normal;font-size:46.01874542px;line-height:1.25;font-family:Shekasteh_Beta;-inkscape-font-specification:Shekasteh_Beta;letter-spacing:0px;word-spacing:0px;fill:#120a8f;fill-opacity:1;stroke:none;stroke-width:0.27761474" id="path4757" inkscape:connector-curvature="0"/>
            <path sodipodi:nodetypes="ccccccccccscccccscccccsccccccccccccccccscccccscccccccsscccccccccccccccccccccccccccccsccccccscccccccccccccccsccccccsccc" d="m -312.60407,-145.71615 c 0,0.749 0.0899,1.44557 0.26964,2.08972 0.19474,0.64414 0.47936,1.20589 0.85386,1.68525 0.3745,0.47937 0.83139,0.87634 1.37068,1.19092 0.55426,0.2996 1.19091,0.49434 1.90996,0.58422 2.74135,0.1498 4.59887,-0.72653 5.57258,-2.629 0.0449,-0.0899 0.0449,-0.18725 0,-0.29211 -0.20972,-0.3745 -0.4494,-0.65163 -0.71905,-0.83139 -0.31458,-0.20972 -0.61418,-0.23219 -0.8988,-0.0674 -0.19474,0.13482 -0.45689,0.25466 -0.78645,0.35952 -0.31458,0.0899 -0.63665,0.13482 -0.96622,0.13482 -0.41944,0 -0.84637,-0.10486 -1.28079,-0.31458 -0.41944,-0.20972 -0.73402,-0.53179 -0.94374,-0.96622 -0.17977,-0.32956 -0.19477,-0.749 -0.045,-1.25832 0.16479,-0.50933 0.47188,-1.22088 0.92128,-2.13466 0.4494,-0.92877 0.93625,-1.84255 1.46055,-2.74135 0.52431,-0.91379 1.12351,-1.37068 1.79761,-1.37068 0.88383,0 1.77514,0.50183 2.67394,1.5055 0.89881,0.98868 1.32574,2.26947 1.2808,3.84238 0,1.48303 -0.38199,3.25817 -1.14598,5.32542 -0.749,2.06725 -1.67027,3.79744 -2.76382,5.19059 -0.70406,0.85386 -1.32573,1.51298 -1.86502,1.97736 -1.18342,1.01865 -2.57656,1.52797 -4.17943,1.52797 -1.90247,0 -3.28812,-0.70406 -4.15697,-2.11219 -0.88382,-1.42311 -1.30326,-3.1533 -1.25832,-5.19059 0.5243,-1.28829 1.04111,-2.42677 1.55043,-3.41545 0.50933,-0.98869 0.95873,-1.68526 1.34821,-2.08972 z m 22.01152,-13.61253 c 0.11984,0.41944 0.11234,0.85386 -0.0225,1.30326 -0.11984,0.4494 -0.33706,0.91379 -0.65164,1.39315 -0.25466,0.38948 -0.51681,0.75649 -0.78645,1.10103 -0.25466,0.32956 -0.53928,0.64415 -0.85386,0.94375 -0.19474,0.20972 -0.36701,0.35952 -0.51681,0.4494 -0.14981,0.0899 -0.27714,0.1498 -0.382,0.17976 -0.10486,0.015 -0.19474,0.007 -0.26964,-0.0225 -0.0749,-0.0299 -0.14231,-0.0674 -0.20223,-0.11235 -0.5243,-0.41944 -1.04111,-0.83888 -1.55043,-1.25832 -0.49435,-0.43443 -1.04112,-0.83889 -1.64032,-1.21339 -0.0749,-0.10486 -0.11235,-0.17976 -0.11235,-0.2247 0,-0.0599 0.0374,-0.14982 0.11235,-0.26964 l 3.41545,-5.258 c 0.10486,-0.13482 0.20223,-0.19474 0.29211,-0.17976 0.10486,0 0.21721,0.0375 0.33706,0.11235 0.2996,0.17976 0.5992,0.3745 0.8988,0.58422 0.31458,0.19474 0.5992,0.41944 0.85386,0.6741 0.25466,0.25466 0.47936,0.53179 0.67411,0.8314 0.19474,0.28462 0.32956,0.60669 0.40446,0.96621 z m -6.87585,0.42693 c 0,0.0599 0.007,0.10487 0.0225,0.13482 0,0.0449 0.007,0.0824 0.0225,0.11235 v 0.11235 c 0.015,0.0299 0.0225,0.0599 0.0225,0.0899 v 0.31458 c 0,0.0299 -0.007,0.0674 -0.0225,0.11235 v 0.0899 l -0.0674,0.26965 c 0,0.0299 -0.007,0.0524 -0.0225,0.0674 v 0.0674 l -0.0899,0.26964 c -0.0299,0.0599 -0.0599,0.11985 -0.0899,0.17976 -0.015,0.0599 -0.0375,0.11985 -0.0674,0.17976 0,0.015 -0.007,0.03 -0.0225,0.0449 v 0.0225 l -0.11235,0.20223 c -0.0299,0.0749 -0.0674,0.14231 -0.11235,0.20223 -0.0449,0.0449 -0.0824,0.0974 -0.11235,0.15729 -0.0299,0.0299 -0.0449,0.0524 -0.0449,0.0674 l -0.26964,0.40446 -0.11235,0.15729 c -0.0299,0.0299 -0.0599,0.0674 -0.0899,0.11235 -0.015,0.0449 -0.0375,0.0824 -0.0674,0.11235 -0.0599,0.0899 -0.11237,0.1573 -0.15729,0.20224 l -0.35952,0.4494 c -0.0299,0.0299 -0.0449,0.0524 -0.0449,0.0674 l -0.11235,0.11235 c -0.0299,0.0449 -0.0674,0.0824 -0.11235,0.11235 l -0.13482,0.13482 c -0.0449,0.0749 -0.10486,0.13482 -0.17976,0.17976 l -0.2247,0.2247 -0.11235,0.0899 c -0.16478,0.13482 -0.30709,0.2247 -0.42693,0.26964 l -0.13482,0.0449 h -0.15729 c -0.11984,0 -0.22471,-0.0449 -0.31459,-0.13482 -0.32956,-0.25466 -0.65163,-0.51681 -0.96621,-0.78645 -0.2996,-0.26964 -0.62167,-0.53179 -0.96621,-0.78645 -0.10486,-0.0899 -0.20972,-0.17228 -0.31458,-0.24718 -0.31459,-0.23968 -0.62168,-0.45689 -0.92128,-0.65163 -0.015,0 -0.0225,-0.008 -0.0225,-0.0225 -0.0749,-0.0749 -0.11235,-0.14231 -0.11235,-0.20223 0,-0.0599 0.0374,-0.14982 0.11235,-0.26964 l 3.43793,-5.23553 c 0,-0.015 0.007,-0.03 0.0225,-0.0449 0.10486,-0.13482 0.21721,-0.18725 0.33705,-0.15729 l 0.0449,0.0225 c 0.015,0 0.03,0.007 0.0449,0.0225 l 0.15729,0.0674 c 0.0299,0.0299 0.0599,0.0524 0.0899,0.0674 0.0299,0 0.0599,0.015 0.0899,0.0449 0.0299,0.015 0.0599,0.03 0.0899,0.0449 0.0299,0.015 0.0599,0.0375 0.0899,0.0674 0.0599,0.0299 0.11985,0.0674 0.17976,0.11235 0.0899,0.0599 0.17976,0.11985 0.26964,0.17976 0.0899,0.0449 0.17976,0.10485 0.26964,0.17976 l 0.0899,0.0674 c 0.13482,0.10486 0.26215,0.20972 0.38199,0.31458 0.11984,0.10486 0.23968,0.21721 0.35953,0.33705 l 0.26964,0.31459 0.20223,0.26964 c 0.10486,0.1498 0.18725,0.2996 0.24717,0.4494 0.0299,0.0449 0.0599,0.11234 0.0899,0.20223 l 0.0674,0.20223 c 0.015,0.015 0.0225,0.03 0.0225,0.0449 0,0.015 0.007,0.0375 0.0225,0.0674 0,0.0449 0.007,0.0749 0.0225,0.0899 z" style="font-style:normal;font-variant:normal;font-weight:normal;font-stretch:normal;font-size:46.01874542px;line-height:1.25;font-family:Shekasteh_Beta;-inkscape-font-specification:Shekasteh_Beta;letter-spacing:0px;word-spacing:0px;fill:#120a8f;fill-opacity:1;stroke:none;stroke-width:0.27761474" id="path4759" inkscape:connector-curvature="0"/>
            <path sodipodi:nodetypes="ccccccccccsccccscccc" d="m -313.05347,-140.3458 c -0.10486,0.58422 -0.19474,1.10103 -0.26964,1.55044 l -0.1573,1.07856 c -0.26964,1.49801 -0.56175,2.24701 -0.87633,2.24701 l -2.56159,4.08956 c -0.17976,0.11984 -0.36701,0.19474 -0.56175,0.2247 -0.20972,0.0449 -0.39697,0.0599 -0.56175,0.0449 -0.17976,-0.015 -0.32956,-0.0525 -0.44941,-0.11235 -0.11984,-0.0449 -0.19474,-0.0974 -0.2247,-0.15729 l 2.4043,-4.08956 c 0.38949,-1.15347 0.65164,-2.56908 0.78646,-4.24685 0.13482,-1.67777 0.36701,-3.40796 0.69657,-5.19059 0.34454,-1.79761 0.5992,-2.94358 0.76398,-3.43792 0.19474,-0.68909 0.38397,-1.72058 0.75848,-2.64934 0.38948,-0.94375 1.2865,-4.39264 1.78084,-5.93559 0.13482,-0.20972 0.24717,-0.31458 0.33705,-0.31458 0.0899,0 0.13482,0.1498 0.13482,0.4494 -0.32956,1.70773 -0.95143,5.75369 -1.14617,7.28166 -0.17976,1.52797 -0.31458,2.9286 -0.40446,4.20191 z" style="font-style:normal;font-variant:normal;font-weight:normal;font-stretch:normal;font-size:46.01874542px;line-height:1.25;font-family:Shekasteh_Beta;-inkscape-font-specification:Shekasteh_Beta;letter-spacing:0px;word-spacing:0px;fill:#120a8f;fill-opacity:1;stroke:none;stroke-width:0.27761474" id="path4761" inkscape:connector-curvature="0"/>
            <path sodipodi:nodetypes="cccsccccccscccccccscsccc" d="m -320.71578,-127.38056 c 0.74901,-1.87251 1.40813,-3.19824 1.97737,-3.9772 0.0899,-0.11984 0.2247,-0.20223 0.40446,-0.24717 0.17976,-0.0449 0.35952,-0.0674 0.53929,-0.0674 0.17976,0 0.35952,0.03 0.53928,0.0899 0.16478,0.0599 0.26964,0.13483 0.31458,0.2247 -0.20972,0.34454 -0.34454,0.56924 -0.40446,0.6741 l 0.17976,0.0449 c 0.0299,0 0.0674,0.008 0.11235,0.0225 1.67777,0.26964 2.83872,0.56175 3.48286,0.87633 0.83889,0.43443 1.25833,1.04861 1.25833,1.84255 0,0.32956 -0.0824,0.72653 -0.24717,1.19092 -0.56925,1.93243 -1.31825,3.20573 -2.24701,3.81991 -0.52431,0.34454 -1.80495,0.38923 -4.38152,1.03338 -1.51268,1.78335 -2.13378,2.56229 -3.30218,4.5401 -1.20879,2.99445 -1.50337,3.9128 -1.88749,5.4827 -0.38983,2.26262 -1.38799,5.53405 -1.20892,7.66854 0.0674,0.60688 0.43452,1.02636 0.40456,1.46078 -0.0299,0.38949 -0.31465,0.17954 -0.49444,0.17954 -0.0749,0 -0.14231,-0.015 -0.20223,-0.0449 -1.57223,-1.87236 -1.87068,-6.18662 -1.42058,-9.37573 0.67448,-4.77893 1.23528,-10.42007 5.77424,-13.3262 0.26964,-0.76398 0.53928,-1.46804 0.80892,-2.11219 z" style="font-style:normal;font-variant:normal;font-weight:normal;font-stretch:normal;font-size:46.01874542px;line-height:1.25;font-family:Shekasteh_Beta;-inkscape-font-specification:Shekasteh_Beta;letter-spacing:0px;word-spacing:0px;fill:#120a8f;fill-opacity:1;stroke:none;stroke-width:0.27761474" id="path4763" inkscape:connector-curvature="0"/>
          </g>
          <path sodipodi:nodetypes="ccccccccccccc" inkscape:connector-curvature="0" style="fill:#120a8f;fill-opacity:1;stroke:#120a8f;stroke-width:0.28877157px;stroke-linecap:butt;stroke-linejoin:miter;stroke-opacity:1" d="m 71.323174,11.120492 -4.085685,-3.2559579 -0.93971,-4.0967086 -5.168815,-2.4187022 1.186718,5.995954 4.024847,1.4212497 3.377005,4.57464 z M 64.468385,5.6471649 c -0.226938,0.215824 -0.755589,0.029793 -1.180867,-0.4155453 -0.425293,-0.4453183 -0.586248,-0.9813877 -0.35953,-1.1974404 0.226752,-0.2162424 0.755662,-0.030289 1.18115,0.4152658 0.425508,0.4455399 0.586377,0.9818716 0.359247,1.1977199 z" id="path4767"/>
          <path transform="matrix(1.004673,0,0,1.004673,-0.61897731,-0.11506414)" sodipodi:nodetypes="csc" inkscape:original-d="m 68.852288,10.425011 c 6.8452,7.145104 28.201153,16.538463 39.004322,13.451842 6.59126,-1.883217 17.64651,-8.015019 24.60216,-11.22532" inkscape:path-effect="#path-effect4749" inkscape:connector-curvature="0" id="path4747" d="m 68.852288,10.425011 c 0.009,0.0094 0.518791,-0.428009 0.527476,-0.419014 1.282861,1.32862 3.539215,3.220178 7.251316,5.430723 2.817363,1.677731 6.397457,3.484713 10.429872,5.047149 3.579834,1.387074 7.461544,2.556464 11.173146,3.163308 3.543622,0.579379 6.860282,0.632878 9.530272,-0.09318 1.65434,-0.435874 3.59075,-1.14048 5.64747,-1.986977 2.14211,-0.881641 4.41118,-1.916076 6.55116,-2.924404 5.56654,-2.622873 10.11707,-4.893218 12.49577,-5.991082 -2.3787,1.097864 -6.8763,3.463864 -12.37969,6.229551 -2.11468,1.062718 -4.36063,2.161251 -6.48443,3.111624 -2.03534,0.910792 -3.97298,1.692424 -5.6458,2.207002 -2.78769,0.833182 -6.22596,0.840256 -9.848533,0.317017 -3.800206,-0.548897 -7.768716,-1.67482 -11.420844,-3.024937 -4.113891,-1.520821 -7.782544,-3.305177 -10.67988,-4.977993 -3.813488,-2.201769 -6.198742,-4.140717 -7.584724,-5.576138 -0.0094,-0.0097 0.446383,-0.503291 0.437419,-0.512648 z" style="fill:url(#linearGradient4811);fill-opacity:1;fill-rule:nonzero;stroke:none;stroke-width:0.28742841px;stroke-linecap:butt;stroke-linejoin:miter;stroke-opacity:1"/>
        </g>
      </g>
    </g>
  </g>
</svg>