<?xml version="1.0" standalone="no"?>
<!DOCTYPE svg PUBLIC "-//W3C//DTD SVG 20010904//EN"
 "http://www.w3.org/TR/2001/REC-SVG-20010904/DTD/svg10.dtd">
<svg version="1.0" xmlns="http://www.w3.org/2000/svg"
 width="700.000000pt" height="700.000000pt" viewBox="0 0 700.000000 700.000000"
 preserveAspectRatio="xMidYMid meet">
<metadata>
Created by potrace 1.14, written by Peter Selinger 2001-2017
</metadata>
<g transform="translate(0.000000,700.000000) scale(0.100000,-0.100000)"
fill="#000000" stroke="none">
<path d="M3278 6995 c-1 -1 -42 -5 -89 -9 -47 -4 -95 -8 -105 -10 -10 -2 -48
-7 -84 -12 -36 -4 -67 -8 -70 -9 -3 -1 -25 -5 -50 -9 -25 -4 -112 -23 -193
-42 -1092 -254 -2017 -1053 -2437 -2105 -66 -165 -142 -407 -165 -530 -3 -13
-14 -69 -25 -124 -42 -211 -55 -370 -55 -650 0 -194 7 -329 20 -406 2 -13 6
-46 9 -74 47 -409 239 -953 466 -1318 30 -48 60 -95 65 -105 24 -42 133 -191
208 -285 200 -248 433 -468 692 -653 61 -44 120 -84 130 -91 165 -100 214
-128 295 -171 187 -98 530 -233 685 -268 6 -1 47 -11 92 -23 97 -25 236 -52
342 -67 25 -3 57 -8 71 -10 163 -25 682 -25 842 1 13 2 46 7 73 10 72 10 86
12 120 19 17 3 44 8 60 11 728 138 1435 541 1935 1104 36 41 70 79 76 85 29
30 185 242 240 326 122 187 240 409 315 597 66 163 147 422 175 558 16 75 54
300 60 350 4 33 9 76 11 95 8 70 10 547 2 610 -4 36 -10 94 -14 130 -3 36 -8
72 -10 80 -2 8 -7 35 -10 60 -17 129 -77 376 -131 536 -104 312 -227 563 -410
839 -439 663 -1077 1147 -1838 1396 -142 47 -399 109 -516 124 -14 2 -38 6
-55 9 -16 3 -55 8 -85 11 -30 4 -73 9 -95 12 -45 5 -541 13 -547 8z m458 -99
c55 -4 111 -8 125 -11 13 -2 49 -6 79 -9 64 -7 87 -11 195 -32 44 -9 91 -18
105 -21 102 -18 300 -77 459 -137 454 -170 858 -432 1206 -781 313 -313 543
-650 725 -1065 74 -168 174 -488 204 -650 3 -14 9 -50 15 -80 11 -59 16 -96
26 -175 4 -27 8 -61 11 -75 21 -130 21 -584 0 -720 -3 -14 -7 -52 -11 -85 -4
-32 -9 -68 -11 -80 -2 -11 -6 -33 -9 -50 -94 -565 -349 -1122 -724 -1584 -124
-154 -319 -346 -506 -500 -280 -230 -661 -438 -1040 -568 -102 -34 -332 -97
-395 -107 -19 -3 -71 -12 -115 -20 -44 -8 -102 -17 -130 -21 -27 -3 -66 -8
-85 -10 -182 -22 -616 -22 -732 0 -11 3 -46 7 -77 11 -31 3 -65 8 -76 10 -11
3 -38 7 -60 10 -22 3 -106 21 -187 40 -613 140 -1183 457 -1628 904 -229 230
-384 429 -538 690 -47 81 -172 323 -172 334 0 3 -13 34 -29 68 -86 188 -190
555 -226 798 -27 180 -38 341 -37 540 0 179 11 327 33 470 6 36 12 78 14 93
13 91 74 341 116 467 68 208 189 483 283 640 108 183 198 313 325 470 71 87
293 318 387 402 132 117 384 296 549 390 239 136 545 265 765 324 75 20 261
64 285 67 16 3 59 10 95 16 60 9 89 13 190 26 19 2 80 7 135 11 55 4 101 7
102 8 5 4 266 -3 359 -8z"/>
<path d="M2763 5978 c-58 -89 -108 -170 -110 -179 -3 -10 7 -24 29 -37 18 -11
42 -29 53 -39 72 -65 129 -103 149 -97 43 12 160 158 183 230 18 51 6 112 -30
163 -33 46 -128 121 -154 121 -7 0 -61 -73 -120 -162z"/>
<path d="M2342 5950 c-101 -155 -124 -200 -105 -200 5 0 48 -31 96 -70 122
-97 118 -96 164 -57 51 41 100 105 135 174 42 83 29 160 -39 227 -41 42 -109
86 -130 86 -12 -1 -52 -53 -121 -160z"/>
<path d="M5577 5954 c-100 -97 -207 -166 -309 -200 -76 -25 -95 -27 -267 -29
-158 -2 -196 -5 -251 -24 -147 -48 -351 -216 -437 -361 -50 -85 -37 -101 45
-50 27 16 80 42 118 57 65 25 79 27 259 29 308 4 378 19 511 105 150 98 349
325 415 474 17 39 17 75 0 75 -3 0 -41 -34 -84 -76z"/>
<path d="M1802 5804 c-5 -11 -29 -86 -52 -169 -23 -82 -51 -172 -60 -200 -56
-152 -116 -458 -136 -682 -7 -86 -22 -179 -35 -221 -10 -29 -64 -128 -126
-230 -82 -133 -193 -368 -193 -407 0 -8 -12 -22 -27 -32 -52 -32 -141 -132
-179 -199 -70 -126 -111 -279 -150 -562 -15 -114 -16 -344 -1 -407 19 -80 32
-116 56 -160 19 -35 36 -95 57 -203 33 -176 16 -156 179 -212 l90 -31 100
-135 c83 -113 102 -146 116 -202 53 -202 246 -448 534 -679 112 -89 155 -123
207 -161 l56 -41 -10 32 c-40 122 -45 160 -33 214 7 30 15 57 19 60 3 3 34
-25 68 -62 262 -283 562 -459 915 -537 80 -18 132 -22 278 -22 210 0 341 20
488 76 29 11 28 12 -54 51 -80 38 -162 107 -190 159 -12 23 -16 24 64 -28 82
-54 137 -69 262 -69 98 0 212 9 270 20 20 5 28 6 175 25 47 6 96 13 110 15 25
4 60 8 155 20 28 3 64 8 80 10 17 2 62 7 100 11 39 4 79 8 90 10 11 1 31 3 45
3 25 2 25 2 -10 31 -106 91 -258 175 -353 194 -42 9 -80 23 -137 50 l-65 31
66 6 c222 23 582 197 890 430 140 106 300 273 345 361 15 29 15 29 -8 17 -12
-7 -45 -26 -73 -44 -79 -51 -145 -76 -210 -82 l-60 -4 58 30 c273 146 453 343
521 571 8 27 13 50 10 50 -3 0 -41 -29 -85 -63 -89 -72 -166 -113 -220 -120
-61 -7 -64 6 -12 49 155 126 224 242 258 434 8 45 9 211 1 272 -18 145 -38
255 -71 398 -14 63 -28 124 -31 136 -2 11 -33 135 -68 275 -60 237 -64 250
-66 194 -2 -60 -3 -82 -14 -185 -35 -325 -180 -672 -364 -872 -41 -43 -78 -71
-136 -100 -114 -57 -123 -67 -131 -147 -11 -105 -41 -243 -65 -299 -41 -95
-81 -75 -125 61 -14 43 -25 85 -25 93 0 28 -29 26 -87 -5 -124 -66 -203 -164
-353 -436 -18 -33 -42 -76 -53 -95 -87 -157 -207 -268 -322 -298 l-40 -11 25
20 c46 38 162 154 195 194 57 71 60 68 -58 61 -58 -3 -111 -8 -119 -10 -7 -3
-31 -7 -53 -10 -106 -13 -302 -71 -470 -138 -55 -22 -254 -116 -442 -209 -189
-93 -345 -169 -347 -169 -3 0 16 23 42 51 90 97 178 246 158 266 -16 16 -132
-40 -259 -124 -76 -51 -162 -101 -191 -112 -60 -22 -151 -38 -144 -25 2 5 10
23 18 39 34 71 94 148 136 174 24 14 44 29 44 32 0 11 -313 102 -425 124 -192
37 -476 50 -572 27 l-42 -10 -113 90 c-132 104 -129 101 -132 119 -1 8 -13 61
-26 118 l-24 104 -115 54 c-64 30 -126 59 -138 65 -37 18 -50 127 -29 243 15
82 68 327 82 375 27 96 96 263 132 320 20 30 64 92 99 136 l64 82 107 22 c59
12 118 24 131 27 56 13 117 100 162 232 48 139 2 197 -188 236 -43 9 -81 19
-85 23 -5 6 42 87 153 262 8 13 11 12 24 -5 61 -80 122 -113 222 -122 125 -10
222 30 327 133 134 134 250 364 292 581 39 202 2 331 -120 421 -39 29 -58 36
-97 36 -66 1 -91 -25 -177 -192 -86 -167 -99 -207 -83 -254 23 -70 134 -102
223 -64 51 22 63 20 93 -11 32 -36 32 -47 -7 -99 -58 -75 -156 -114 -279 -110
-92 4 -149 28 -206 86 -85 86 -104 216 -68 450 2 14 7 48 10 75 3 28 12 93 21
145 8 52 17 111 20 130 3 19 9 57 15 84 10 53 -1 83 -19 50z m-710 -3464 c29
-30 33 -50 10 -58 -17 -5 -72 56 -65 74 8 21 21 17 55 -16z"/>
<path d="M3164 4906 c-119 -41 -314 -333 -429 -641 -20 -55 -38 -106 -40 -115
-2 -8 -9 -37 -16 -65 l-13 -50 -8 58 c-10 78 -36 134 -89 189 -49 51 -80 70
-96 60 -13 -9 -57 -88 -131 -237 l-60 -120 72 -70 c79 -77 107 -126 114 -198
4 -40 0 -54 -23 -88 -29 -41 -108 -114 -205 -190 -199 -154 -260 -237 -184
-252 38 -7 161 40 236 89 37 25 90 71 117 102 58 65 140 209 188 327 l33 80 1
-85 c1 -87 1 -93 13 -170 19 -116 82 -250 154 -325 6 -8 12 -18 12 -23 0 -5
-38 -45 -85 -88 -216 -199 -414 -286 -650 -288 -60 0 -126 3 -147 7 -57 10
-142 45 -166 67 -58 55 8 -42 71 -103 152 -148 344 -168 597 -62 164 68 414
275 487 403 51 89 103 204 146 327 36 101 96 299 104 345 2 14 8 41 13 60 5
19 11 53 15 75 3 23 7 50 9 62 3 11 9 65 16 119 6 55 13 115 15 134 24 197 28
575 7 625 -18 43 -40 54 -78 41z m-72 -232 c7 -26 3 -550 -6 -649 -2 -22 -6
-78 -10 -125 -19 -235 -51 -380 -109 -495 -23 -46 -113 -181 -125 -189 -20
-12 -112 190 -126 277 -3 20 -9 54 -12 75 -13 80 -7 302 12 407 36 204 124
440 217 582 49 74 125 155 141 150 5 -2 14 -17 18 -33z"/>
<path d="M3791 4748 c-62 -95 -115 -178 -118 -184 -2 -6 11 -21 29 -32 18 -11
42 -29 53 -39 34 -30 119 -99 133 -107 29 -17 124 68 187 168 60 95 60 171 -1
249 -37 47 -130 117 -156 117 -8 0 -65 -77 -127 -172z"/>
<path d="M4709 4873 c-44 -37 -150 -167 -196 -242 -12 -20 -51 -94 -87 -166
-136 -272 -196 -517 -190 -770 3 -155 6 -173 40 -273 27 -79 77 -166 120 -213
l25 -26 -79 -74 c-43 -41 -87 -81 -98 -89 -181 -142 -359 -211 -554 -213 -160
-3 -260 20 -323 72 -35 29 -25 4 21 -51 60 -71 136 -127 212 -155 52 -20 75
-22 168 -19 115 4 175 19 282 69 61 29 199 112 210 126 3 4 16 15 30 24 14 9
66 58 117 108 83 83 98 104 152 213 61 123 67 137 127 311 33 96 77 248 89
310 16 79 34 185 39 230 4 28 9 57 11 65 2 8 7 51 10 94 4 43 8 87 10 96 8 43
19 254 17 345 -4 213 -16 258 -72 263 -28 2 -44 -5 -81 -35z m-13 -210 c12
-79 6 -478 -11 -678 -2 -27 -7 -84 -10 -125 -4 -41 -8 -86 -10 -100 -20 -141
-23 -159 -46 -230 -27 -85 -59 -148 -122 -243 l-52 -78 -19 23 c-38 47 -87
168 -112 277 -14 59 -13 347 1 431 8 47 17 99 19 115 14 78 76 263 124 365 60
127 182 290 219 290 6 0 15 -21 19 -47z"/>
<path d="M3948 4123 c-9 -16 -35 -73 -58 -128 -131 -311 -196 -388 -461 -552
-124 -78 -164 -113 -174 -155 -17 -68 18 -99 104 -93 71 5 155 53 236 134 148
149 252 347 353 671 42 132 45 150 29 150 -7 0 -20 -12 -29 -27z"/>
</g>
</svg>
